<?xml version="1.0" encoding="UTF-8"?>
<svg width="16px" height="16px" viewBox="0 0 16 16" version="1.1" xmlns="http://www.w3.org/2000/svg" xmlns:xlink="http://www.w3.org/1999/xlink">
    <!-- Generator: Sketch 52.6 (67491) - http://www.bohemiancoding.com/sketch -->
    <title>guid-copy</title>
    <desc>Created with Sketch.</desc>
    <g id="Page-1" stroke="none" stroke-width="1" fill="none" fill-rule="evenodd">
        <g id="guid-copy" fill="#0077B6">
            <path d="M11.4253724,2.85633473 L1.71380753,2.85633473 C0.767297071,2.85633473 0,3.6236318 0,4.57014226 L0,14.2817071 C0,15.2282176 0.767297071,15.9955146 1.71380753,15.9955146 L11.4253724,15.9955146 C12.3718828,15.9955146 13.1391799,15.2282176 13.1391799,14.2817071 L13.1391799,4.57014226 C13.1391799,3.6236318 12.3718828,2.85633473 11.4253724,2.85633473 Z M11.9966527,14.2817406 C11.9966527,14.5972552 11.740887,14.8530209 11.4253724,14.8530209 L1.71380753,14.8530209 C1.39829289,14.8530209 1.1425272,14.5972552 1.1425272,14.2817406 L1.1425272,4.57014226 C1.1425272,4.25462762 1.39829289,3.99886192 1.71380753,3.99886192 L11.4253724,3.99886192 C11.740887,3.99886192 11.9966527,4.25462762 11.9966527,4.57014226 L11.9966527,14.2817406 Z" id="Shape" fill-rule="nonzero"></path>
            <path d="M14.2817406,0 L3.9988954,0 C3.05238494,0 2.28508787,0.767297071 2.28508787,1.71380753 C2.28508787,2.02932218 2.54085356,2.28508787 2.8563682,2.28508787 C3.17188285,2.28508787 3.42761506,2.02932218 3.42761506,1.71380753 C3.42761506,1.39829289 3.68338075,1.1425272 3.9988954,1.1425272 L14.2817406,1.1425272 C14.5972552,1.1425272 14.8530209,1.39829289 14.8530209,1.71380753 L14.8530209,11.9966527 C14.8530209,12.3121674 14.5972552,12.5679331 14.2817406,12.5679331 C13.9662259,12.5679331 13.7104603,12.8236987 13.7104603,13.1392134 C13.7104603,13.454728 13.9662259,13.7104937 14.2817406,13.7104937 C15.228251,13.7104937 15.9955481,12.9431967 15.9955481,11.9966862 L15.9955481,1.71380753 C15.9955481,0.767297071 15.228251,0 14.2817406,0 Z" id="Path"></path>
        </g>
    </g>
</svg>