<svg height="36.842"viewBox="0 0 265.523 36.842"width="265.523"xmlns="http://www.w3.org/2000/svg"xmlns:xlink="http://www.w3.org/1999/xlink"><linearGradient id="a"gradientUnits="objectBoundingBox"x1=".069"x2=".87"y1=".259"y2="1.204"><stop offset="0"stop-color="#ffcb47"/><stop offset="1"stop-color="#f5bf38"/></linearGradient><g fill="#333"><path d="m13.2 114.509c-7.592 0-13.2-5.5-13.2-12.955s5.676-12.954 13.349-12.954a16.327 16.327 0 0 1 7.451 1.776v3.2a16.53 16.53 0 0 0 -7.544-1.876 9.867 9.867 0 1 0 -.1 19.734 13.349 13.349 0 0 0 4.945-.905v-7.545h3.32v9.611a18.457 18.457 0 0 1 -8.219 1.915z"transform="translate(77.329 -77.676)"/><path d="m66.427 105.618c0 5.746-3.622 9.194-9.681 9.194s-9.646-3.448-9.646-9.194v-16.298h3.343v16.066c0 3.97 2.368 6.338 6.3 6.338s6.338-2.38 6.338-6.338v-16.066h3.343z"transform="translate(57.566 -77.978)"/><path d="m93.3 114.393v-25.073h3.343v25.073z"transform="translate(38.181 -77.978)"/><path d="m112.86 114.393v-25.073h7.209c8.044 0 13.407 5.015 13.407 12.537s-5.293 12.537-13.268 12.537zm3.34-22.252v19.432h3.97c5.92 0 9.867-3.9 9.867-9.716s-4-9.716-10.029-9.716z"transform="translate(29.974 -77.978)"/><path d="m175.663 102.727 11.945-13.407h4.144l-9.228 10.064 9.345 15.009h-3.9l-7.708-12.676-4.6 4.98v7.7h-3.341v-25.077h3.343z"transform="translate(10.024 -77.978)"/><path d="m214.74 114.393v-25.073h3.343v25.073z"transform="translate(-7.775 -77.978)"/><path d="m254 114.509-15.561-16.89-.8-.871v17.343h-3.339v-25.491h.035l15.565 16.89.8.871v-17.343h3.343v25.491z"transform="translate(-15.982 -77.676)"/><path d="m292.008 114.509c-7.592 0-13.2-5.5-13.2-12.955s5.678-12.954 13.351-12.954a16.326 16.326 0 0 1 7.452 1.776v3.2a16.53 16.53 0 0 0 -7.545-1.881 9.867 9.867 0 1 0 -.1 19.734 13.349 13.349 0 0 0 4.945-.905v-7.545h3.274v9.611a18.457 18.457 0 0 1 -8.177 1.919z"transform="translate(-34.658 -77.676)"/></g><path d="m161.786 12.983a1.783 1.783 0 0 1 -.05.513l-3.781 15.147a1.723 1.723 0 0 1 -1.673 1.3l-22.693.117h-22.738a1.729 1.729 0 0 1 -1.673-1.305l-3.787-15.2a1.851 1.851 0 0 1 -.045-.524 3.619 3.619 0 1 1 3.38-.658l4.74 4.774a6.43 6.43 0 0 0 9.7-.653l7.808-10.323a3.62 3.62 0 1 1 5.148-.033l7.735 10.351a6.447 6.447 0 0 0 5.143 2.579 6.369 6.369 0 0 0 4.54-1.885l4.774-4.768a3.614 3.614 0 1 1 3.463.591z"fill="url(#a)"transform="translate(-102.809)"/><path d="m162.975 59.326c0-.558-.77-.976-1.718-.976h-44.5c-.948 0-1.723.435-1.723.976v2.348c0 .558.775.976 1.723.976h44.516c.948 0 1.718-.435 1.718-.976z"fill="url(#a)"transform="translate(-108.215 -25.808)"/><text fill="#f5bf38"font-family="ArialMT, Arial"font-size="1"opacity=".5"transform="translate(34.375 36.524)"><tspan x="0"y="0">b8d</tspan><tspan letter-spacing=".032em"y="0">90</tspan><tspan y="0">4d</tspan><tspan letter-spacing=".032em"y="0">5</tspan><tspan y="0">-fcd</tspan><tspan letter-spacing=".032em"y="0">6-42</tspan><tspan y="0">7c-</tspan><tspan letter-spacing=".032em"y="0">be</tspan><tspan y="0">a</tspan><tspan letter-spacing=".032em"y="0">0</tspan><tspan y="0">-fd</tspan><tspan letter-spacing=".032em"y="0">0536</tspan><tspan y="0">2d</tspan><tspan letter-spacing=".097em"y="0">7</tspan><tspan letter-spacing=".032em"y="0">3</tspan><tspan y="0">0a</tspan></text></svg>
